HIERARCHY
ROOT Hips
{
	OFFSET -14.64140 90.27770 -84.91600
	CHANNELS 6 Xposition Yposition Zposition Zrotation Xrotation Yrotation
	JOINT Spine
	{
		OFFSET 0.00000 13.20850 -1.60436
		CHANNELS 3 Zrotation Xrotation Yrotation
		JOINT Spine1
		{
			OFFSET 0.00000 8.61716 0.00000
			CHANNELS 3 Zrotation Xrotation Yrotation
			JOINT Spine2
			{
				OFFSET 0.00000 8.61717 0.00000
				CHANNELS 3 Zrotation Xrotation Yrotation
				JOINT Spine3
				{
					OFFSET 0.00000 8.61717 0.00000
					CHANNELS 3 Zrotation Xrotation Yrotation
					JOINT Neck
					{
						OFFSET 0.00000 11.07920 1.10792
						CHANNELS 3 Zrotation Xrotation Yrotation
						JOINT Neck1
						{
							OFFSET 0.00000 7.08032 0.00000
							CHANNELS 3 Zrotation Xrotation Yrotation
							JOINT Head
							{
								OFFSET 0.00000 7.08031 0.00000
								CHANNELS 3 Zrotation Xrotation Yrotation
								End site
								{
									OFFSET 0.00000 0.00000 0.00000
								}
							}
						}
					}
					JOINT RightShoulder
					{
						OFFSET -0.01000 7.91373 5.19711
						CHANNELS 3 Zrotation Xrotation Yrotation
						JOINT RightArm
						{
							OFFSET -18.41580 0.00000 0.00000
							CHANNELS 3 Zrotation Xrotation Yrotation
							JOINT RightForeArm
							{
								OFFSET -29.11090 0.00000 0.00000
								CHANNELS 3 Zrotation Xrotation Yrotation
								JOINT RightHand
								{
									OFFSET -24.65040 0.00000 0.00000
									CHANNELS 3 Zrotation Xrotation Yrotation
									JOINT RightHandThumb1
									{
										OFFSET -5.35114 -0.85590 3.97906
										CHANNELS 3 Zrotation Xrotation Yrotation
										JOINT RightHandThumb2
										{
											OFFSET -4.52789 0.00000 0.00000
											CHANNELS 3 Zrotation Xrotation Yrotation
											JOINT RightHandThumb3
											{
												OFFSET -2.46976 0.00000 0.00000
												CHANNELS 3 Zrotation Xrotation Yrotation
												End site
												{
													OFFSET 0.00000 0.00000 0.00000
												}
											}
										}
									}
									JOINT RightHandIndex1
									{
										OFFSET -14.26970 0.00000 2.88139
										CHANNELS 3 Zrotation Xrotation Yrotation
										JOINT RightHandIndex2
										{
											OFFSET -5.48836 0.00000 0.00000
											CHANNELS 3 Zrotation Xrotation Yrotation
											JOINT RightHandIndex3
											{
												OFFSET -3.01859 0.00000 0.00000
												CHANNELS 3 Zrotation Xrotation Yrotation
												End site
												{
													OFFSET 0.00000 0.00000 0.00000
												}
											}
										}
									}
									JOINT RightHandMiddle1
									{
										OFFSET -14.26970 0.00000 -0.09147
										CHANNELS 3 Zrotation Xrotation Yrotation
										JOINT RightHandMiddle2
										{
											OFFSET -6.17441 0.00000 0.00000
											CHANNELS 3 Zrotation Xrotation Yrotation
											JOINT RightHandMiddle3
											{
												OFFSET -3.56743 0.00000 0.00000
												CHANNELS 3 Zrotation Xrotation Yrotation
												End site
												{
													OFFSET 0.00000 0.00000 0.00000
												}
											}
										}
									}
									JOINT RightHandRing1
									{
										OFFSET -12.69180 0.00000 -3.06433
										CHANNELS 3 Zrotation Xrotation Yrotation
										JOINT RightHandRing2
										{
											OFFSET -5.62556 0.00000 0.00000
											CHANNELS 3 Zrotation Xrotation Yrotation
											JOINT RightHandRing3
											{
												OFFSET -3.56744 0.00000 0.00000
												CHANNELS 3 Zrotation Xrotation Yrotation
												End site
												{
													OFFSET 0.00000 0.00000 0.00000
												}
											}
										}
									}
									JOINT RightHandPinky1
									{
										OFFSET -11.11390 0.00000 -6.03719
										CHANNELS 3 Zrotation Xrotation Yrotation
										JOINT RightHandPinky2
										{
											OFFSET -4.52789 0.00000 0.00000
											CHANNELS 3 Zrotation Xrotation Yrotation
											JOINT RightHandPinky3
											{
												OFFSET -2.46976 0.00000 0.00000
												CHANNELS 3 Zrotation Xrotation Yrotation
												End site
												{
													OFFSET 0.00000 0.00000 0.00000
												}
											}
										}
									}
								}
							}
						}
					}
					JOINT LeftShoulder
					{
						OFFSET 0.01000 7.91373 5.19711
						CHANNELS 3 Zrotation Xrotation Yrotation
						JOINT LeftArm
						{
							OFFSET 18.41580 0.00000 0.00000
							CHANNELS 3 Zrotation Xrotation Yrotation
							JOINT LeftForeArm
							{
								OFFSET 29.11090 0.00000 0.00000
								CHANNELS 3 Zrotation Xrotation Yrotation
								JOINT LeftHand
								{
									OFFSET 24.65040 0.00000 0.00000
									CHANNELS 3 Zrotation Xrotation Yrotation
									JOINT LeftHandThumb1
									{
										OFFSET 5.35114 -0.85590 3.97906
										CHANNELS 3 Zrotation Xrotation Yrotation
										JOINT LeftHandThumb2
										{
											OFFSET 4.52789 0.00000 0.00000
											CHANNELS 3 Zrotation Xrotation Yrotation
											JOINT LeftHandThumb3
											{
												OFFSET 2.46977 0.00000 0.00000
												CHANNELS 3 Zrotation Xrotation Yrotation
												End site
												{
													OFFSET 0.00000 0.00000 0.00000
												}
											}
										}
									}
									JOINT LeftHandIndex1
									{
										OFFSET 14.26970 0.00000 2.88139
										CHANNELS 3 Zrotation Xrotation Yrotation
										JOINT LeftHandIndex2
										{
											OFFSET 5.48836 0.00000 0.00000
											CHANNELS 3 Zrotation Xrotation Yrotation
											JOINT LeftHandIndex3
											{
												OFFSET 3.01859 0.00000 0.00000
												CHANNELS 3 Zrotation Xrotation Yrotation
												End site
												{
													OFFSET 0.00000 0.00000 0.00000
												}
											}
										}
									}
									JOINT LeftHandMiddle1
									{
										OFFSET 14.26970 0.00000 -0.09147
										CHANNELS 3 Zrotation Xrotation Yrotation
										JOINT LeftHandMiddle2
										{
											OFFSET 6.17440 0.00000 0.00000
											CHANNELS 3 Zrotation Xrotation Yrotation
											JOINT LeftHandMiddle3
											{
												OFFSET 3.56744 0.00000 0.00000
												CHANNELS 3 Zrotation Xrotation Yrotation
												End site
												{
													OFFSET 0.00000 0.00000 0.00000
												}
											}
										}
									}
									JOINT LeftHandRing1
									{
										OFFSET 12.69180 0.00000 -3.06433
										CHANNELS 3 Zrotation Xrotation Yrotation
										JOINT LeftHandRing2
										{
											OFFSET 5.62556 0.00000 0.00000
											CHANNELS 3 Zrotation Xrotation Yrotation
											JOINT LeftHandRing3
											{
												OFFSET 3.56744 0.00000 0.00000
												CHANNELS 3 Zrotation Xrotation Yrotation
												End site
												{
													OFFSET 0.00000 0.00000 0.00000
												}
											}
										}
									}
									JOINT LeftHandPinky1
									{
										OFFSET 11.11390 0.00000 -6.03719
										CHANNELS 3 Zrotation Xrotation Yrotation
										JOINT LeftHandPinky2
										{
											OFFSET 4.52789 0.00000 0.00000
											CHANNELS 3 Zrotation Xrotation Yrotation
											JOINT LeftHandPinky3
											{
												OFFSET 2.46976 0.00000 0.00000
												CHANNELS 3 Zrotation Xrotation Yrotation
												End site
												{
													OFFSET 0.00000 0.00000 0.00000
												}
											}
										}
									}
								}
							}
						}
					}
					JOINT pCube4
					{
						OFFSET 0.00000 10.91090 1.10792
						CHANNELS 3 Zrotation Xrotation Yrotation
						End site
						{
							OFFSET 0.00000 0.00000 0.00000
						}
					}
				}
			}
		}
	}
	JOINT RightUpLeg
	{
		OFFSET -9.98441 0.00000 0.00000
		CHANNELS 3 Zrotation Xrotation Yrotation
		JOINT RightLeg
		{
			OFFSET 0.00000 -42.11790 0.00000
			CHANNELS 3 Zrotation Xrotation Yrotation
			JOINT RightFoot
			{
				OFFSET 0.00000 -45.00020 -0.00001
				CHANNELS 3 Zrotation Xrotation Yrotation
				JOINT RightForeFoot
				{
					OFFSET 0.00000 -3.74820 0.00000
					CHANNELS 3 Zrotation Xrotation Yrotation
					JOINT RightToeBase
					{
						OFFSET 0.00000 0.06325 14.43120
						CHANNELS 3 Zrotation Xrotation Yrotation
						End site
						{
							OFFSET 0.00000 0.00000 0.00000
						}
					}
				}
			}
		}
	}
	JOINT LeftUpLeg
	{
		OFFSET 9.98441 0.00000 0.00000
		CHANNELS 3 Zrotation Xrotation Yrotation
		JOINT LeftLeg
		{
			OFFSET 0.00000 -42.11800 0.00000
			CHANNELS 3 Zrotation Xrotation Yrotation
			JOINT LeftFoot
			{
				OFFSET 0.00000 -45.00070 0.00000
				CHANNELS 3 Zrotation Xrotation Yrotation
				JOINT LeftForeFoot
				{
					OFFSET 0.00000 -3.74824 0.00000
					CHANNELS 3 Zrotation Xrotation Yrotation
					JOINT LeftToeBase
					{
						OFFSET 0.00000 0.06325 14.43110
						CHANNELS 3 Zrotation Xrotation Yrotation
						End site
						{
							OFFSET 0.00000 0.00000 0.00000
						}
					}
				}
			}
		}
	}
}
MOTION
Frames: 4
Frame Time: 0.050000
0.0300369906053178 0.022479146704903523 0.02384265357572234 0.04009047266810755 0.010818696076797486 0.022916075785410057 -3.7415865224675158 2.177886987257396 -0.7589760176501738 -1.1746330582011482 3.939042097605795 0.37203511541443424 -1.4162215860844138 -1.4734829620224523 -1.3878835841703379 0.1772393832433416 0.6296063371037303 -0.851758913173887 0.08431713874035662 11.334550812759222 -0.749276628512024 0.20976589207038418 -2.0031598273443065 -3.4224957283211004 0.6740304985106512 -18.60062419383871 -0.3035266834556233 -4.699331844965169 1.6579936458818776 -14.90372343115027 74.5330897232567 24.45322287879742 0.02245831245769297 -2.5839031526328173 1.8317945015397503 40.28149289175851 19.638690602041343 -0.08423486877556972 -3.7275630315812984 4.526449206946828 -0.09057890701818316 -1.5641628655684445 -0.042637676366876216 -0.005849082527191771 -56.239615655083774 0.010674410016578394 0.023942894251200268 -56.22305443291311 -38.74349438666666 0.029971976844508016 0.007482132167381035 0.04222729794793102 -0.02294131592356096 -0.019348035404015522 0.009926388926329485 0.03133809570856241 -0.0072053767299493495 -36.69819148289835 0.034462482024677756 -0.04382507044621768 -0.031017752747428167 0.037647664491014324 -0.04595934382376453 0.012292137230021425 -0.016677805702186 0.049194816992070414 -19.746290203467595 0.01632394499729704 0.007453406950672554 0.014363850466280643 0.02667734654674503 0.01586858981003676 0.030681651556443347 -0.005953826921512836 0.016945682319243153 24.04389326926424 0.03501082963908322 0.01840666518934723 28.884778020156293 0.0024141124124678155 0.015378101453378333 28.887441087644785 -0.04909315021234077 -0.02914106258224951 5.058769286110429 1.1664992608204778 12.828514370060363 -71.73015378306863 26.749106096804496 -6.220418188965306 1.4002474963545715 -7.755431029976716 -40.66254892717862 -8.361518986605748 1.4939693974305455 2.4671257664131336 -0.5194878977187978 0.027302040804541218 -8.07397268918607 -0.03183896445377391 0.02243438966090665 44.61391302927265 -0.04970923468984024 -0.03581401223970558 44.56852403983062 12.42110507669515 0.00023379437656813229 0.0033400272308096207 -0.028692657473040797 0.02580474255173134 0.03086271827849773 0.01747280966549325 0.015243908643491958 -0.021302060941497097 11.121956758546231 -0.02315211031113934 -0.021187789089742563 0.014097969639784496 -0.030178281217151905 -0.012047026137357433 0.027218788581808418 0.030666930796813548 -0.033473010522959035 4.759534025576572 0.026308566553568193 -0.03092582464495205 0.03644540407884377 0.004538871325321015 0.028109979222465165 -0.023230317624780276 -0.027119912119944016 -0.020289062456317914 -5.640673270227018 -0.01092774646600025 -0.0007019613556800944 -6.720785411708297 0.03762446790083183 0.006263263057483755 -6.763793004780011 0.013976527809241105 -0.03908213546386828 -0.0022300906502727975 0.020600298954393668 -0.02521344137276464 8.068340374938435 3.5404347028724437 -19.219556790949735 0.04874723867620588 10.41239912929976 0.04969830711293427 -5.593336066877344 -15.659607129493766 3.2119130829175826 0.01884505063828847 -0.0064887331396614265 -0.027239779067692968 -0.033450071008401756 4.692150192612696 0.021233573434674007 12.495685419721266 -8.249911317772854 6.890566786712597 0.014945846359880294 46.35893570438293 0.002175768642714769 -4.341836883002985 -14.73186049158607 -3.8598262138071355 0.015031128741449898 0.016974552885216553 0.03540990922120256 0.038925977402429125 -10.793048284614809 -0.04720699338882106 
-0.01068399180029845 -0.004797246833118834 0.022928994079882484 0.04190173454945339 0.0034541200906404988 0.0105985215644058 -3.5004131573116295 2.185338424762363 -0.7745176800470179 -1.125853736071109 3.921723498163923 0.3810578419894714 -1.367945781954084 -1.4132757440358725 -1.2844428234333556 0.15459345550522507 0.6334910127639579 -0.8663193657415725 -0.018786837696222608 11.462638697387833 -0.717149376249125 0.16398747814909692 -1.8790061334286818 -3.455495146450592 0.6493496356001133 -18.403737175076635 -0.38669425373887556 -4.62083380090208 1.6322199988496982 -14.761350278304738 73.96037039512635 24.390336815675138 0.5903772493978077 -2.5118830041999307 1.6936659979913218 42.10698753688333 19.76331025216626 -0.08527941395290708 -3.8562855379940117 4.575245648427582 -0.10915044705045007 -1.6223346882607865 0.013526530050831247 -0.033395845153033225 -56.20687264964754 0.01935754240491951 -0.03100495046932812 -56.22111489697694 -38.72406246476866 -0.030009757442345488 -0.025427166081463802 -0.0003896850278742978 -0.006095515353356469 0.008511826170537072 0.03518741504254238 0.04670918304916991 0.0025766931084795237 -36.69822293758411 0.041393429066157984 -0.03456329195854887 -0.01918370427770556 -0.014326795635884924 0.026496555017453266 -0.01374606372920883 -0.014294174847815857 0.03427461975919078 -19.77954929633024 -0.02478321691351261 -0.02476998399694914 0.030896939005059104 -0.02724981496523749 -0.018617461601000092 -0.03183650336279812 -0.04857679126910974 0.04279456387091552 24.100350756986877 0.046151098840515804 -0.013226726696259915 28.815826894425953 -0.04374766835856818 0.031066517939923995 28.904667372010046 -0.009205036266496954 0.005458838702171145 5.105515152557088 1.2527224225788571 12.881812279262741 -71.55178501834159 26.623808541854817 -6.586014622286333 1.658961028259313 -7.825013965924622 -42.643285553528706 -8.426422932470238 1.5366802998171858 2.360750756917461 -0.505148522261047 0.07425975882342742 -8.091925354025555 0.04159275511467403 0.043300358409927936 44.576238619256664 -0.007738052062105664 0.004661487396360939 44.53583603784382 12.492308870139746 0.03242529946946233 -0.03149061962994784 -0.009772494794401185 0.03582185797349731 0.02456378529565669 0.009416929495869024 0.0348380041824142 -0.04323377899776203 11.123322163114235 0.0005387393866344123 -0.021554560081612485 -0.013945466191966235 0.023106464854995602 -0.021436932616016473 -0.013449823854634963 -0.01146593228746072 0.02880081208989564 4.801705011143768 0.03721380926384837 0.00785566712573176 -0.01050995261428139 -0.007218743292261005 0.01122051211404605 -0.0065409956376149304 0.0038786568376468415 -0.0010516151282144476 -5.589321424149401 -0.0020078715704275 -0.022636522299476537 -6.760213854553261 0.049477082002259254 -0.04247149778599741 -6.703545774816422 0.022780732840549475 0.03884834030429151 0.01312571305189938 0.04949564835139734 0.014821682799467464 8.090370668198085 3.459885267481181 -19.222998533747752 -0.03396443164267083 10.37389262225117 0.012062328165849383 -5.585741551163592 -15.636814177935234 3.1863278946431604 -0.005736524662462087 -0.02168835335067692 -0.017825841714209294 0.023426472315233066 4.674008129151188 -0.04432005280820121 12.495315921087753 -8.242525793375295 6.8503537726969865 -0.037224492011663744 46.36767841366759 0.0017495443669741284 -4.318731132413694 -14.769243466661605 -3.8306407536525264 0.02401270821263707 0.02508929946617386 -0.017969024149269392 0.03267098103694535 -10.725137895489537 -0.020367809892744497 
-0.004272841495433693 0.028282466742884378 0.03061628177409101 0.02439250762308035 0.0023866659769288204 -0.00795421793091224 -3.393425068511169 2.1794431765290003 -0.7613039720762311 -1.1219683464719945 3.878483103359332 0.400504474073817 -1.368859716279897 -1.4566539160346468 -1.166024935273779 0.12963014427653471 0.6077798003319247 -0.8719265092544012 0.05454019776527263 11.545382967852763 -0.7627911220912644 0.20195596879714234 -1.7242016228796475 -3.619327613113512 0.6897290555000299 -18.049642496815455 -0.3634891759965729 -4.61815930070124 1.6887092352183597 -14.58462870850515 73.18907639170216 24.335513723351117 1.771487195184475 -1.7753493720666957 1.5227911063482895 45.34850576708457 19.740482176847735 -0.1662284765248438 -3.893836630301431 4.561326593998559 -0.1349018432589858 -1.55155306777253 0.006308475485527468 0.04667949832293575 -56.24837141297336 0.014793137453505892 -0.03905606507142143 -56.24674807771983 -38.72637684401949 -0.01559142999811861 -0.01217848021868865 -0.01962241038411512 0.04879124216188629 -0.01878714562224156 -0.0028073979505544855 0.016056215405300753 0.025864586897903077 -36.70380110933286 0.013178181756401841 -0.0033758729233886874 -0.014913380583553546 0.009744390265649706 0.005091675977751119 0.04258107121452328 0.03420721533050692 -0.013158722314528264 -19.78009051940581 -0.005074507640013416 -0.021372425071806866 -0.0001653058508397894 0.007202549188960071 -0.026548009793182545 0.0038739652918111265 0.005498338757490628 0.0343665606536553 24.01881193653201 0.03881412537226872 0.04645396009883386 28.858879361978634 -0.008953176332150318 -0.03472863598966486 28.905389597552507 0.003688465160371539 -0.014605116561423005 5.201472967959386 1.2671958032320818 12.791266388765244 -70.60428993406607 26.720630757154375 -7.592970858515773 0.6790202138727379 -7.701152983545905 -46.77426199086686 -8.508790266984102 1.0647077700548728 2.4530885265404643 -0.4496016587156197 0.08665071203358664 -8.156964260988167 -0.002459122187453055 0.02058152736913852 44.56652500955781 -0.04915821458235268 -0.014988012155359167 44.53556609127608 12.461523815586622 -0.015044855806896143 0.01710072313038281 0.0022093982490606887 0.0106614204602123 -0.04833098767484883 -0.04959540213752183 0.033309378260776304 -0.02377270039012403 11.135265993211519 -0.001499508067524446 -0.03846285035203715 0.01607761599491615 -0.02661826591022183 -0.026784517144106137 -0.04098209800844094 -0.020774579098040015 0.012937937808288157 4.735897217222311 0.04495500805467594 -0.017619108099203428 -0.04497673351958896 -0.03821474569134023 -0.016961125568954967 -0.02521396386971483 -0.005623415450742358 -0.014824548313691796 -5.594746061876135 0.02135801796941065 -0.015604151906920284 -6.767126946908867 -0.039994939595191 0.0018242964772088924 -6.729920799657432 -0.04012278189318354 -0.03211030562439776 -0.006147644264550745 0.01800486554482575 -0.032856398984637915 8.001027454618328 3.5309585721874766 -19.215865672785522 0.013834583571967474 10.346125760387073 0.007247909279110625 -5.665687706351688 -15.682691924983262 3.1651032932618772 -0.036504528469003164 -0.0258041756144223 -0.020376658562149298 0.04225378850464203 4.723807923857885 -0.02818823037410303 12.466905950292007 -8.272663683921031 6.855389473070412 -0.030250891583246113 46.38177131784079 0.006297291372553491 -4.3183829482684954 -14.764799598782677 -3.852418360252641 0.04635440365908889 0.028624231791620002 -0.022493123215564865 -0.012149701158186225 -10.701308539559165 0.04571201419098136 
0.012637429765940254 -0.023825390233607878 0.02151109333399369 -0.002220403662022117 0.03208665977707215 -0.04651848402714173 -3.170229312510388 2.198649753111923 -0.7571672726507664 -1.1307989361921855 3.80272277036426 0.3677319976644976 -1.3239473657076872 -1.5315236295457662 -1.2027020656564915 0.2141904376651857 0.5376854973720379 -0.8247491584600936 0.03911016639610673 11.690907003147647 -0.8395516104908736 0.2054090334098436 -1.4753561558306603 -3.8446596136306255 0.7340869641749554 -17.678969392469167 -0.3333780965887343 -4.701562280843516 1.6789797545409004 -14.37404200432805 72.59189126021957 24.09684875671632 2.930701861236201 -0.21291665483894232 1.2720303675914126 49.604250629436706 19.402183954897723 -0.11373683704085198 -3.7763951373504683 4.536059674691752 -0.13986392912177467 -1.6377621678901373 -0.003569815378162276 -0.030677339526107905 -56.18520361134647 -0.009943302634240295 0.03049989479468313 -56.22578284152301 -38.77603308560643 -0.03531639987024137 -0.024007221108400475 -0.013825494201815803 -0.018803859452185448 -0.011359669088406727 -0.0004969503550442408 0.02911563406048028 0.02698264828061376 -36.673516625097314 0.0006892733764603995 0.005829181612662873 -0.045920695850092036 0.039385644647764013 0.004120905244307503 -0.03404282767693542 0.041223773099294696 -0.04821349032095247 -19.76291333033891 0.019390042140932314 -0.0008409817805345937 -0.005208838092212918 0.0025290258225814256 -0.006883932532564517 -0.04188263929640346 -0.028474671804313154 0.0063585972488552425 24.02447454993148 -0.0026959303606697996 0.02445909941677091 28.84584900545113 0.013524631870982103 -0.007215180416902078 28.902570140268253 -0.024531743180044467 -0.02187137368243965 5.4770589367096445 1.3368292608211731 12.708108712085366 -69.3658475204174 27.172618166493866 -8.925369091042697 -1.6456355510785328 -6.911803203629768 -53.77787697595789 -8.76393789221357 -0.09783081325235671 2.787933328837792 -0.48809313296623835 0.04346167462400846 -8.13653941407461 -0.016565780862913874 -0.02689975211652995 44.54304540389715 0.029765063709116 -0.039891060026045914 44.561206719309126 12.443871279290837 -0.01718575132979728 0.02063065213979293 0.024765924644036603 0.04946292973863092 -0.02678274353952539 0.03131376333983021 0.021903803375329902 -0.03173745309204802 11.067203877538644 0.03124135441403455 -0.023404371039392156 -0.009718076801788428 0.032844078640118034 -0.04955050473165808 -0.018783114152727397 -0.04543345033984621 1.886604608101349e-05 4.724209648899151 0.03311634983586125 -0.013104949449731656 -0.0232897149283944 -0.02818155021730211 -0.03794505972911581 0.030833270257448142 0.034529846222316696 0.01661199347119321 -5.5800164333695745 0.003193610091088 -0.014512490318607197 -6.701103334244802 0.0012178476406432919 -0.011482201330004356 -6.736163046730514 0.026746418777653023 0.022532202526281343 0.0180094517802331 0.026032567376648504 0.0243054355830967 8.070165594834064 3.518336483584781 -19.234632718611557 -0.025232417905185295 10.378171016870382 0.015936672814556217 -5.614973550149204 -15.62345045809968 3.1503758459819715 -0.015622598964192727 0.006088941974060181 -0.04763317025238815 0.005861896460419596 4.667720604310272 0.027006639608217132 12.458130135709947 -8.215120772140036 6.924971596855949 0.04349021730739407 46.4062571954824 0.022301999167412184 -4.3145964066935205 -14.79116172018687 -3.8461978082266195 -0.008562530331485544 0.015031270791686995 -0.03870751657322276 -0.007788242294439028 -10.710022987886147 0.03243595660364115 
